<svg xmlns="http://www.w3.org/2000/svg" xmlns:xlink="http://www.w3.org/1999/xlink" width="190" zoomAndPan="magnify" viewBox="0 0 142.5 127.500001" height="170" preserveAspectRatio="xMidYMid meet" version="1.0"><defs><clipPath id="c3ed6c4fb3"><path d="M 38.632812 89.085938 L 75.984375 89.085938 L 75.984375 126.4375 L 38.632812 126.4375 Z M 38.632812 89.085938 " clip-rule="nonzero"/></clipPath><clipPath id="695d08ec8f"><path d="M 1.523438 75.453125 L 52.324219 75.453125 L 52.324219 126.253906 L 1.523438 126.253906 Z M 1.523438 75.453125 " clip-rule="nonzero"/></clipPath><clipPath id="ab293f5d00"><path d="M 88.917969 2.695312 L 139.71875 2.695312 L 139.71875 53.496094 L 88.917969 53.496094 Z M 88.917969 2.695312 " clip-rule="nonzero"/></clipPath><clipPath id="339de7dce3"><path d="M 71 2.695312 L 108.355469 2.695312 L 108.355469 40.050781 L 71 40.050781 Z M 71 2.695312 " clip-rule="nonzero"/></clipPath></defs><g clip-path="url(#c3ed6c4fb3)"><path fill="#000000" d="M 57.308594 126.4375 C 46.988281 126.4375 38.632812 118.023438 38.632812 107.761719 C 38.632812 97.5 46.988281 89.085938 57.308594 89.085938 C 67.625 89.085938 75.984375 97.445312 75.984375 107.761719 C 75.984375 118.082031 67.566406 126.4375 57.308594 126.4375 Z M 57.308594 90.238281 C 47.625 90.238281 39.785156 98.078125 39.785156 107.761719 C 39.785156 117.445312 47.625 125.285156 57.308594 125.285156 C 66.992188 125.285156 74.832031 117.445312 74.832031 107.761719 C 74.832031 98.078125 66.933594 90.238281 57.308594 90.238281 Z M 57.308594 90.238281 " fill-opacity="1" fill-rule="nonzero"/></g><g clip-path="url(#695d08ec8f)"><path fill="#000000" d="M 26.925781 126.253906 C 12.890625 126.253906 1.523438 114.808594 1.523438 100.855469 C 1.523438 86.898438 12.890625 75.453125 26.925781 75.453125 C 40.957031 75.453125 52.324219 86.820312 52.324219 100.855469 C 52.324219 114.886719 40.878906 126.253906 26.925781 126.253906 Z M 26.925781 77.023438 C 13.753906 77.023438 3.089844 87.683594 3.089844 100.855469 C 3.089844 114.023438 13.753906 124.6875 26.925781 124.6875 C 40.09375 124.6875 50.757812 114.023438 50.757812 100.855469 C 50.757812 87.683594 40.015625 77.023438 26.925781 77.023438 Z M 26.925781 77.023438 " fill-opacity="1" fill-rule="nonzero"/></g><g clip-path="url(#ab293f5d00)"><path fill="#000000" d="M 114.320312 53.496094 C 100.289062 53.496094 88.917969 42.050781 88.917969 28.097656 C 88.917969 14.144531 100.289062 2.695312 114.320312 2.695312 C 128.351562 2.695312 139.71875 14.0625 139.71875 28.097656 C 139.71875 42.128906 128.273438 53.496094 114.320312 53.496094 Z M 114.320312 4.265625 C 101.148438 4.265625 90.488281 14.925781 90.488281 28.097656 C 90.488281 41.269531 101.148438 51.929688 114.320312 51.929688 C 127.492188 51.929688 138.152344 41.269531 138.152344 28.097656 C 138.152344 14.925781 127.414062 4.265625 114.320312 4.265625 Z M 114.320312 4.265625 " fill-opacity="1" fill-rule="nonzero"/></g><g clip-path="url(#339de7dce3)"><path fill="#000000" d="M 89.679688 40.050781 C 79.359375 40.050781 71 31.632812 71 21.375 C 71 11.113281 79.359375 2.695312 89.679688 2.695312 C 99.996094 2.695312 108.355469 11.054688 108.355469 21.375 C 108.355469 31.691406 99.9375 40.050781 89.679688 40.050781 Z M 89.679688 3.851562 C 79.992188 3.851562 72.152344 11.691406 72.152344 21.375 C 72.152344 31.058594 79.992188 38.898438 89.679688 38.898438 C 99.363281 38.898438 107.203125 31.058594 107.203125 21.375 C 107.203125 11.691406 99.304688 3.851562 89.679688 3.851562 Z M 89.679688 3.851562 " fill-opacity="1" fill-rule="nonzero"/></g></svg>